{
	"asset":{
		"generator":"Khronos glTF Blender I/O v4.4.55",
		"version":"2.0"
	},
	"scene":0,
	"scenes":[
		{
			"name":"Scene",
			"nodes":[
				0
			]
		}
	],
	"nodes":[
		{
			"mesh":0,
			"name":"Mesh_0"
		}
	],
	"materials":[
		{
			"name":"Material_0",
			"normalTexture":{
				"index":0
			},
			"occlusionTexture":{
				"index":1
			},
			"pbrMetallicRoughness":{
				"baseColorTexture":{
					"index":2
				},
				"metallicFactor":0
			}
		}
	],
	"meshes":[
		{
			"name":"Mesh_0",
			"primitives":[
				{
					"attributes":{
						"POSITION":0,
						"NORMAL":1,
						"TEXCOORD_0":2
					},
					"indices":3,
					"material":0
				}
			]
		}
	],
	"textures":[
		{
			"sampler":0,
			"source":0
		},
		{
			"sampler":0,
			"source":1
		},
		{
			"sampler":0,
			"source":2
		}
	],
	"images":[
		{
			"mimeType":"image/jpeg",
			"name":"7609174914168a14b772c115d746bd99",
			"uri":"7609174914168a14b772c115d746bd99.jpg"
		},
		{
			"mimeType":"image/jpeg",
			"name":"25c597c54bde727f5e8c6ff0928322ad",
			"uri":"25c597c54bde727f5e8c6ff0928322ad.jpg"
		},
		{
			"mimeType":"image/jpeg",
			"name":"d24f6fba9e201b8011eff42d0324ec17",
			"uri":"d24f6fba9e201b8011eff42d0324ec17.jpg"
		}
	],
	"accessors":[
		{
			"bufferView":0,
			"componentType":5126,
			"count":14637,
			"max":[
				0.2888408899307251,
				0.15156157314777374,
				0.37958353757858276
			],
			"min":[
				-0.16805844008922577,
				-0.047893524169921875,
				-0.15537846088409424
			],
			"type":"VEC3"
		},
		{
			"bufferView":1,
			"componentType":5126,
			"count":14637,
			"type":"VEC3"
		},
		{
			"bufferView":2,
			"componentType":5126,
			"count":14637,
			"type":"VEC2"
		},
		{
			"bufferView":3,
			"componentType":5123,
			"count":14637,
			"type":"SCALAR"
		}
	],
	"bufferViews":[
		{
			"buffer":0,
			"byteLength":175644,
			"byteOffset":0,
			"target":34962
		},
		{
			"buffer":0,
			"byteLength":175644,
			"byteOffset":175644,
			"target":34962
		},
		{
			"buffer":0,
			"byteLength":117096,
			"byteOffset":351288,
			"target":34962
		},
		{
			"buffer":0,
			"byteLength":29274,
			"byteOffset":468384,
			"target":34963
		}
	],
	"samplers":[
		{
			"magFilter":9729,
			"minFilter":9987
		}
	],
	"buffers":[
		{
			"byteLength":497660,
			"uri":"gamepad_from_polycam_cleaned.bin"
		}
	]
}
